# xmcd CD database file
#
# Track frame offsets:
#	150
#	22075
#	37550
#	53175
#	67450
#	80925
#	103762
#	128625
#	140187
#	164400
#
# Disc length: 2481 seconds
#
# Revision: 0
# Processed by: cddbd v1.5.2PL0 Copyright (c) Steve Scherf et al.
# Submitted via: CDex 1.51
#
DISCID=9409af0a
DTITLE=Bryn Haworth - Sunny Side of the Street
DYEAR=1975
DGENRE=Blues
TTITLE0=Good Job
TTITLE1=Pick Me Up
TTITLE2=Darlin' Cory
TTITLE3=Dance
TTITLE4=Peace of Mind
TTITLE5=Give All You Got To Me
TTITLE6=Heaven Knows
TTITLE7=Sunny Side of the Street
TTITLE8=Used
TTITLE9=Thank the Lord
EXTD=YEAR: 1975
EXTT0=
EXTT1=
EXTT2=
EXTT3=
EXTT4=
EXTT5=
EXTT6=
EXTT7=
EXTT8=
EXTT9=
PLAYORDER=
